<?xml version="1.0" standalone="no"?>
<!DOCTYPE svg PUBLIC "-//W3C//DTD SVG 20010904//EN"
 "http://www.w3.org/TR/2001/REC-SVG-20010904/DTD/svg10.dtd">
<svg version="1.0" xmlns="http://www.w3.org/2000/svg"
 width="1024.000000pt" height="1024.000000pt" viewBox="0 0 1024.000000 1024.000000"
 preserveAspectRatio="xMidYMid meet">

<g transform="translate(0.000000,1024.000000) scale(0.100000,-0.100000)"
fill="#000000" stroke="none">
<path d="M0 5120 l0 -5120 5120 0 5120 0 0 5120 0 5120 -5120 0 -5120 0 0
-5120z m4095 3600 c-3 -5 -12 -10 -18 -10 -7 0 -6 4 3 10 19 12 23 12 15 0z
m-235 -155 c-7 -8 -17 -15 -23 -15 -6 0 -2 7 9 15 25 19 30 19 14 0z m3319 -5
c122 -27 136 -34 151 -72 8 -18 40 -78 71 -133 31 -55 60 -115 64 -133 6 -31
6 -32 -19 -22 -14 5 -59 27 -99 49 -87 48 -236 108 -374 151 -57 17 -105 35
-108 40 -8 12 47 51 138 99 43 23 80 41 83 41 2 0 44 -9 93 -20z m-2949 -52
c-29 -26 -131 -96 -166 -115 -46 -23 -23 4 31 38 31 18 77 48 103 66 56 38 66
41 32 11z m215 -88 c-3 -5 -11 -10 -16 -10 -6 0 -7 5 -4 10 3 6 11 10 16 10 6
0 7 -4 4 -10z m2556 -103 c96 -46 210 -100 254 -120 189 -85 219 -101 203
-104 -21 -5 -118 16 -273 58 -86 23 -143 33 -200 33 l-80 1 -42 80 c-45 87
-61 135 -45 135 5 0 88 -37 183 -83z m-3431 59 c0 -2 -7 -7 -16 -10 -8 -3 -12
-2 -9 4 6 10 25 14 25 6z m1575 -5 c-6 -5 -57 -14 -115 -20 -133 -13 -323 -64
-505 -136 -14 -6 -17 -5 -10 3 18 19 179 80 285 108 58 14 155 32 215 39 148
17 140 16 130 6z m118 2 c-7 -2 -19 -2 -25 0 -7 3 -2 5 12 5 14 0 19 -2 13 -5z
m242 -22 c61 -11 139 -27 175 -36 83 -21 282 -93 295 -107 7 -7 4 -7 -10 -1
-42 21 -205 73 -300 97 -125 31 -199 43 -300 51 -44 3 -81 8 -84 11 -11 11
125 2 224 -15z m-1669 -106 c-11 -8 -24 -15 -30 -15 -5 0 -1 7 10 15 10 8 24
14 29 14 6 0 1 -6 -9 -14z m1533 -65 c127 -11 285 -42 376 -72 106 -35 299
-136 413 -215 192 -135 311 -257 397 -406 l28 -48 -36 20 c-19 11 -61 39 -94
63 -32 24 -79 50 -104 58 -55 18 -70 31 -58 52 7 13 -4 19 -69 36 -152 41
-260 55 -366 49 -98 -5 -270 -26 -391 -47 -119 -22 -304 -86 -350 -123 -5 -5
-22 -16 -36 -25 -175 -113 -238 -188 -309 -371 -19 -49 -65 -219 -77 -281 -6
-33 -3 -32 -119 -88 -145 -72 -208 -87 -219 -53 -7 22 -122 66 -229 86 -121
23 -326 23 -431 0 -91 -19 -179 -54 -140 -54 11 -1 27 3 35 8 22 15 30 3 18
-24 -13 -28 -18 -30 -37 -12 -11 10 -13 9 -8 -6 5 -12 -1 -26 -18 -41 -14 -13
-25 -32 -25 -43 0 -14 -11 -23 -40 -32 -27 -8 -40 -18 -40 -29 0 -21 -36 -46
-52 -36 -7 4 -8 3 -4 -4 5 -8 -1 -12 -15 -12 -33 0 -89 -22 -89 -35 0 -6 -16
-19 -35 -28 -32 -15 -35 -15 -43 1 -5 9 -7 24 -5 32 4 13 3 13 -6 0 -6 -8 -8
-23 -5 -32 7 -24 -6 -45 -17 -27 -5 9 -11 5 -20 -17 -6 -16 -18 -43 -25 -60
-20 -46 -42 -149 -49 -234 -8 -89 10 -268 30 -307 8 -16 15 -34 15 -41 0 -7 5
-10 10 -7 14 9 12 -14 -5 -71 -22 -72 -18 -140 10 -209 14 -33 30 -80 36 -105
5 -25 23 -81 39 -125 15 -44 31 -91 35 -105 6 -25 6 -25 -11 -5 -16 19 -16 19
-10 -9 7 -26 6 -28 -9 -16 -14 12 -16 11 -10 -13 4 -16 3 -27 -3 -27 -14 0
-32 -55 -32 -96 0 -19 5 -34 11 -34 8 0 10 -17 7 -51 -4 -34 -1 -52 7 -55 6
-3 11 -19 10 -37 -1 -17 6 -43 15 -57 10 -14 24 -54 31 -88 10 -45 19 -67 34
-74 28 -15 56 -46 45 -50 -6 -2 -1 -9 11 -17 19 -11 21 -11 16 3 -4 10 -1 13
7 10 9 -3 -13 -32 -63 -82 -169 -170 -232 -327 -218 -542 6 -94 26 -159 86
-282 66 -136 137 -213 325 -350 66 -49 243 -126 331 -145 84 -17 209 -7 373
32 57 14 107 25 110 25 4 -1 -19 -12 -51 -26 -124 -53 -372 -89 -552 -81 -302
15 -657 138 -905 314 -112 81 -315 278 -392 383 -72 97 -151 236 -182 319
-105 280 -112 631 -17 877 104 268 352 538 619 674 l59 30 -33 97 c-47 140
-57 219 -52 422 4 164 7 182 36 272 84 253 319 463 627 558 176 54 339 63 498
26 42 -10 57 -10 57 -2 0 7 5 64 10 127 26 288 115 480 310 664 156 146 376
256 609 302 165 32 260 38 420 24z m701 -13 c13 -5 13 -6 -1 -6 -8 -1 -24 6
-35 15 -19 15 -19 15 1 6 11 -5 27 -12 35 -15z m-2365 -17 c-10 -11 -63 -47
-119 -80 -56 -33 -112 -68 -126 -77 l-25 -17 23 23 c21 20 251 171 261 171 2
0 -4 -9 -14 -20z m345 7 c0 -2 -10 -12 -22 -23 l-23 -19 19 23 c18 21 26 27
26 19z m2070 -17 c18 -12 2 -12 -25 0 -13 6 -15 9 -5 9 8 0 22 -4 30 -9z
m-2220 -104 c0 -2 -7 -7 -16 -10 -8 -3 -12 -2 -9 4 6 10 25 14 25 6z m320 0
c0 -2 -8 -10 -17 -17 -16 -13 -17 -12 -4 4 13 16 21 21 21 13z m-376 -25 c3
-5 0 -8 -7 -7 -14 1 -65 -33 -99 -66 -10 -10 -21 -18 -24 -18 -3 0 -26 -14
-52 -31 l-47 -31 32 31 c18 17 35 31 38 31 3 0 18 11 33 25 15 14 32 25 39 25
7 0 13 4 13 10 0 9 47 39 62 40 4 0 9 -4 12 -9z m-414 -39 c0 -11 -41 -34 -48
-28 -3 4 3 13 14 21 21 16 34 19 34 7z m-61 -46 c-5 -4 -202 -136 -324 -216
-192 -127 -245 -159 -245 -150 0 9 101 80 114 80 7 0 384 250 425 282 13 10
26 16 29 13 3 -3 3 -7 1 -9z m241 -76 c0 -5 -5 -10 -11 -10 -5 0 -7 5 -4 10 3
6 8 10 11 10 2 0 4 -4 4 -10z m-121 -83 c-28 -23 -102 -68 -105 -64 -3 2 19
20 48 40 29 19 55 33 57 31 2 -2 2 -6 0 -7z m-919 -48 c0 -5 -5 -7 -11 -3 -7
4 -10 1 -7 -6 2 -7 49 -28 103 -46 54 -18 108 -42 118 -53 21 -20 20 -34 -10
-210 l-6 -34 -101 5 c-57 3 -126 13 -158 23 -56 18 -57 19 -67 66 -8 37 -7 57
4 90 8 23 15 52 15 65 0 34 51 104 72 98 9 -3 19 0 23 6 8 13 25 13 25 -1z
m4841 -52 c104 -110 243 -313 255 -375 l7 -32 -66 0 -66 0 -45 68 c-51 76 -84
122 -173 244 -35 47 -67 97 -72 111 -9 23 -7 27 17 36 60 21 79 14 143 -52z
m-4042 20 c-2 -2 -20 -14 -39 -26 l-35 -23 28 26 c15 14 33 26 39 26 6 0 9 -1
7 -3z m221 -71 c0 -2 -8 -10 -17 -17 -16 -13 -17 -12 -4 4 13 16 21 21 21 13z
m-130 -90 c0 -2 -8 -10 -17 -17 -16 -13 -17 -12 -4 4 13 16 21 21 21 13z
m2821 -112 c14 -7 48 -30 75 -52 35 -28 64 -41 98 -46 187 -28 373 -119 477
-232 54 -59 150 -194 241 -339 114 -180 337 -519 516 -782 139 -204 164 -246
192 -329 26 -76 44 -198 33 -219 -7 -13 -11 5 -16 64 -6 92 -33 159 -91 227
-19 22 -67 88 -108 146 -175 252 -324 457 -331 457 -4 1 -3 -8 3 -18 15 -30
12 -38 -6 -13 -15 22 -44 30 -44 12 0 -5 -8 -10 -17 -10 -15 0 -16 2 -3 10 13
8 13 10 -2 10 -9 0 -18 -8 -21 -17 -3 -14 -6 -12 -15 10 -14 33 -39 35 -52 5
l-9 -23 0 23 c-1 19 -6 22 -41 22 -36 0 -40 -2 -40 -25 0 -30 -11 -32 -36 -4
-15 17 -16 22 -4 29 11 7 11 12 2 23 -9 11 -6 35 12 108 13 52 27 107 30 122
4 15 11 25 16 22 13 -8 13 11 -1 38 -7 16 -2 13 16 -8 16 -19 23 -23 17 -10
-21 50 -43 95 -46 95 -1 0 -3 -14 -4 -31 -1 -41 -21 -88 -49 -116 -25 -26 -38
-30 -30 -10 4 10 -3 12 -25 9 -26 -4 -29 -2 -26 19 3 22 0 24 -39 22 -31 -1
-40 2 -37 12 3 7 -19 1 -55 -16 -34 -16 -65 -29 -71 -29 -24 0 -29 -38 -10
-76 11 -21 19 -50 19 -64 -2 -23 -2 -23 -6 4 -5 33 -84 115 -141 147 -21 11
-28 17 -17 14 11 -4 43 -9 70 -12 43 -4 59 0 115 29 79 41 110 87 110 163 0
82 -17 125 -74 181 -56 57 -98 74 -184 74 -59 0 -106 -18 -147 -56 -14 -13
-28 -24 -31 -24 -2 0 -4 15 -4 33 0 51 -53 133 -103 159 -35 19 -57 23 -143
23 -94 0 -103 -2 -149 -30 -76 -48 -90 -73 -90 -166 l0 -80 41 -38 c42 -40
181 -101 229 -101 22 0 25 -4 20 -20 -3 -11 -2 -20 3 -20 14 0 26 -74 23 -132
-9 -188 -211 -305 -385 -225 -33 15 -66 36 -73 47 -11 16 -18 18 -34 10 -14
-8 -19 -7 -19 2 0 9 -3 9 -10 -2 -9 -13 -11 -13 -20 0 -6 10 -10 11 -10 3 0
-7 -10 -14 -22 -14 -17 -1 -19 -2 -5 -6 32 -8 17 -23 -23 -23 -22 0 -40 -4
-40 -10 0 -5 5 -10 12 -10 6 0 9 -3 5 -6 -3 -4 -18 3 -33 15 -27 21 -101 29
-139 15 -23 -9 -45 -57 -45 -97 0 -28 8 -42 37 -67 32 -28 41 -32 77 -27 30 4
50 15 74 42 37 40 44 41 35 7 -15 -60 -131 -82 -196 -37 -32 21 -38 22 -51 9
-13 -13 -16 -12 -24 2 -7 13 -11 11 -20 -13 -6 -15 -13 -42 -15 -59 -7 -44
-22 -69 -57 -94 -31 -22 -34 -22 -140 -9 -8 1 -20 9 -27 18 -11 15 -12 14 -13
-1 0 -9 -4 -20 -10 -23 -5 -3 -7 0 -4 8 3 8 1 18 -4 21 -6 3 -13 -1 -16 -10
-3 -8 -10 -13 -15 -10 -5 3 -12 -2 -15 -11 -6 -14 -9 -14 -15 -4 -5 8 -10 -3
-14 -31 -4 -33 -15 -51 -43 -77 -34 -31 -40 -33 -89 -28 -59 6 -115 30 -97 41
6 4 25 0 41 -9 39 -20 82 -19 125 2 46 21 62 60 46 107 -15 47 -44 66 -98 66
-83 0 -131 -50 -119 -125 5 -33 0 -40 -25 -36 -5 0 -8 -5 -8 -12 0 -9 -26 -16
-85 -23 -47 -5 -85 -6 -85 -1 0 4 -7 7 -15 7 -8 0 -15 7 -15 15 0 8 -4 15 -9
15 -5 0 2 -33 16 -72 21 -60 26 -92 26 -178 1 -93 -2 -113 -27 -173 -62 -149
-147 -248 -261 -301 -110 -52 -150 -59 -272 -52 -159 10 -168 10 -186 3 -14
-5 -15 -9 -2 -33 7 -15 19 -30 26 -34 6 -4 8 -13 5 -19 -10 -16 -62 -14 -80 4
-8 8 -19 15 -25 15 -16 0 -13 11 7 27 9 8 11 12 4 8 -31 -16 -60 -14 -76 4
-10 11 -43 32 -74 47 -32 15 -85 49 -119 76 -35 26 -63 43 -63 36 0 -7 12 -38
26 -68 14 -30 41 -98 59 -150 18 -52 49 -133 68 -180 19 -47 38 -96 42 -110 4
-14 19 -50 32 -80 14 -30 38 -89 53 -130 16 -41 47 -122 70 -180 23 -58 52
-132 64 -165 13 -33 44 -111 69 -172 25 -62 42 -113 37 -113 -11 0 -81 137
-123 240 -19 47 -44 105 -55 130 -47 101 -243 588 -432 1077 -52 136 -63 193
-58 305 6 121 39 223 115 353 37 64 47 93 53 147 13 112 9 109 314 250 190 88
172 87 254 9 l42 -40 78 28 c42 16 95 36 117 46 51 22 534 223 685 285 63 27
158 66 210 88 52 22 163 68 245 101 83 34 185 78 228 98 85 40 85 40 67 133
-10 56 -1 74 53 101 56 29 234 97 327 125 75 23 103 22 151 -2z m2494 -84
c-24 -26 -125 -89 -105 -65 14 16 110 85 119 85 2 0 -4 -9 -14 -20z m-3658
-47 c-3 -2 -16 -3 -29 -1 l-23 3 25 25 25 25 3 -23 c2 -13 1 -26 -1 -29z
m3995 -53 c-37 -34 -72 -55 -72 -43 1 10 81 72 95 72 5 1 -5 -12 -23 -29z
m-1315 14 c-3 -3 -12 -4 -19 -1 -8 3 -5 6 6 6 11 1 17 -2 13 -5z m90 -20 c-3
-3 -12 -4 -19 -1 -8 3 -5 6 6 6 11 1 17 -2 13 -5z m143 -44 c46 -25 34 -25
-21 0 -24 11 -37 19 -29 19 8 0 31 -8 50 -19z m1000 -4 c0 -6 -163 -131 -238
-183 -100 -68 -135 -95 -160 -122 -17 -18 -25 -22 -34 -13 -14 14 0 26 161
136 64 43 127 89 141 101 51 46 130 95 130 81z m-880 -43 l25 -14 -25 7 c-14
4 -36 13 -50 21 l-25 14 25 -7 c14 -4 36 -13 50 -21z m331 -6 c-10 -9 -11 -8
-5 6 3 10 9 15 12 12 3 -3 0 -11 -7 -18z m-276 -17 c3 -5 2 -10 -4 -10 -5 0
-13 5 -16 10 -3 6 -2 10 4 10 5 0 13 -4 16 -10z m255 5 c0 -2 -10 -10 -22 -16
-21 -11 -22 -11 -9 4 13 16 31 23 31 12z m-696 -50 c266 -46 513 -182 737
-405 216 -214 315 -402 355 -677 28 -188 -3 -386 -87 -558 -109 -225 -287
-395 -549 -528 -134 -69 -247 -114 -257 -103 -3 3 -1 6 6 6 6 0 35 15 64 33
29 18 80 48 115 66 88 45 223 143 254 183 15 20 29 55 33 84 4 27 16 65 26 85
9 19 27 64 39 100 35 104 65 409 40 409 -5 0 -10 -11 -10 -24 0 -14 -5 -28
-12 -32 -7 -5 -8 -3 -3 6 5 9 4 11 -3 6 -7 -4 -12 -14 -12 -22 0 -9 -7 -14
-17 -12 -12 2 -19 -4 -21 -19 -3 -23 -32 -41 -32 -20 -1 21 -30 -26 -30 -47 0
-12 3 -16 8 -10 4 6 14 13 22 16 12 4 15 -5 14 -51 -1 -68 -9 -99 -44 -173
-72 -146 -134 -230 -222 -300 -46 -37 -67 -47 -113 -53 -61 -7 -78 -2 -52 18
25 19 94 155 112 222 25 93 22 87 47 74 21 -11 22 -11 9 4 -12 15 -10 17 18
17 29 0 31 2 31 40 0 25 6 42 15 48 13 6 15 23 13 77 -3 66 -4 69 -30 72 -27
3 -28 2 -28 -37 0 -29 -4 -40 -15 -40 -8 0 -15 5 -15 11 0 5 -4 8 -9 5 -5 -3
-7 -28 -5 -56 2 -28 0 -49 -5 -46 -4 3 -11 39 -14 80 -6 68 -23 133 -48 179
-6 10 -7 28 -4 40 4 14 3 17 -2 10 -7 -9 -15 0 -28 30 -10 23 -44 79 -74 125
-31 46 -76 115 -101 152 -185 283 -417 619 -475 689 -21 25 -71 96 -112 159
-70 106 -74 114 -56 127 16 12 95 38 148 49 53 10 300 5 379 -9z m-1481 -16
c43 -22 87 -72 87 -99 0 -46 -41 -73 -115 -78 -58 -4 -66 -2 -89 21 -50 51
-29 127 44 156 33 13 47 13 73 0z m-4419 -149 c90 -34 156 -123 156 -211 0
-39 -46 -122 -79 -142 -29 -17 -30 -17 -36 4 -4 12 -12 18 -21 15 -7 -3 -16
-1 -19 5 -4 5 1 12 9 15 9 3 16 10 16 15 0 8 -36 -7 -50 -21 -9 -9 -35 -14
-72 -13 -21 0 -38 -4 -38 -8 0 -5 -9 -9 -21 -9 -11 0 -17 -4 -14 -10 3 -5 1
-10 -4 -10 -20 0 -11 -18 12 -25 61 -21 64 -23 35 -24 -15 -1 -30 4 -33 9 -3
6 -16 10 -29 10 -40 0 -111 56 -141 111 -104 191 103 373 329 289z m4864 -9
c56 -29 77 -56 76 -102 -2 -45 -25 -71 -81 -90 -46 -15 -76 -6 -118 36 -56 57
-47 124 21 160 38 20 57 19 102 -4z m-286 -68 c-13 -24 18 -116 49 -150 13
-13 40 -34 59 -44 l35 -20 -41 5 c-23 3 -63 2 -90 -3 -32 -6 -51 -6 -55 1 -3
5 -10 8 -15 6 -5 -1 -10 9 -11 25 -2 30 33 117 47 117 6 0 10 9 10 20 0 11 -5
20 -12 20 -6 0 -3 9 7 20 22 25 29 26 17 3z m2388 -177 c0 -3 -4 -8 -10 -11
-5 -3 -10 -1 -10 4 0 6 5 11 10 11 6 0 10 -2 10 -4z m-7087 -123 c-7 -2 -19
-2 -25 0 -7 3 -2 5 12 5 14 0 19 -2 13 -5z m152 -3 c-3 -5 -11 -10 -16 -10 -6
0 -7 5 -4 10 3 6 11 10 16 10 6 0 7 -4 4 -10z m-78 -16 c-3 -3 -12 -4 -19 -1
-8 3 -5 6 6 6 11 1 17 -2 13 -5z m-1228 -25 c43 -40 11 -140 -38 -124 -61 19
-80 89 -35 124 34 26 45 26 73 0z m5962 10 c56 -17 99 -61 99 -101 0 -44 -20
-70 -68 -92 -48 -22 -105 -10 -146 30 -44 45 -26 126 36 160 29 16 32 17 79 3z
m235 -228 c-32 -60 -145 -121 -226 -121 -49 0 -153 34 -193 62 -43 31 -27 31
39 1 88 -40 177 -39 264 4 69 34 118 91 122 143 1 14 3 6 5 -17 3 -25 -2 -54
-11 -72z m401 -13 c-3 -7 -5 -2 -5 12 0 14 2 19 5 13 2 -7 2 -19 0 -25z
m-5165 -55 c14 -16 55 -88 92 -162 37 -74 79 -151 92 -173 13 -21 35 -63 49
-94 14 -31 41 -82 60 -114 19 -32 35 -62 35 -68 0 -6 -18 -25 -40 -42 -33 -26
-43 -30 -55 -20 -17 14 -21 35 -5 25 6 -3 10 -1 10 5 0 7 -6 10 -14 7 -22 -9
-4 -39 -240 414 -47 92 -86 176 -86 187 0 21 43 62 64 62 7 0 24 -12 38 -27z
m4187 -168 c91 -32 151 -108 151 -193 0 -51 -12 -60 -29 -21 -14 32 -41 39
-41 11 0 -10 -6 -26 -13 -36 -14 -20 -115 -56 -155 -56 -25 0 -76 23 -106 49
-18 15 -19 15 -13 -1 3 -9 0 -19 -8 -22 -8 -3 -15 0 -18 7 -2 7 -6 8 -10 1
-12 -20 38 -74 92 -100 47 -23 63 -26 114 -20 33 3 65 10 71 14 6 5 20 12 31
15 15 5 12 0 -9 -17 -53 -44 -138 -48 -214 -10 -168 84 -191 298 -40 373 51
25 136 28 197 6z m-3772 -87 c-3 -8 -6 -5 -6 6 -1 11 2 17 5 13 3 -3 4 -12 1
-19z m4110 -118 c14 -154 -71 -278 -238 -346 -91 -37 -149 -41 -242 -15 -110
30 -166 61 -223 124 -68 74 -107 157 -112 233 -2 34 1 70 6 80 8 15 11 4 11
-49 0 -203 203 -376 429 -366 169 8 324 135 348 286 5 35 -5 117 -21 168 -3
11 4 2 16 -19 11 -22 24 -65 26 -96z m-4136 -53 c-8 -8 -11 1 -11 29 0 53 14
67 18 19 2 -21 -1 -42 -7 -48z m6737 -22 c-12 -14 -23 -25 -24 -25 -7 0 10 36
20 42 23 16 25 7 4 -17z m-3730 -198 c67 -100 95 -218 72 -303 -40 -141 -181
-259 -342 -285 -114 -18 -266 27 -354 105 -41 36 -85 119 -97 181 -4 19 4 8
22 -30 43 -90 89 -137 178 -181 76 -38 81 -39 183 -39 99 0 109 2 172 33 116
57 197 157 213 263 13 90 -29 223 -94 293 -23 26 -24 27 -4 17 12 -6 35 -30
51 -54z m3705 38 c-3 -9 -8 -14 -10 -11 -3 3 -2 9 2 15 9 16 15 13 8 -4z
m-3979 -26 c85 -24 163 -135 154 -221 l-4 -33 -13 28 c-15 28 -41 37 -41 14 0
-25 -130 -107 -170 -107 -44 0 -111 23 -133 46 -12 13 -25 24 -28 24 -4 0 -4
-21 -1 -47 l5 -48 -23 20 c-48 42 -65 140 -36 208 43 101 166 151 290 116z
m4195 -122 c-2 -1 -15 -11 -29 -22 l-25 -20 19 23 c11 12 24 22 29 22 6 0 8
-1 6 -3z m-1179 -47 c0 -16 -4 -30 -10 -30 -11 0 -14 43 -3 53 11 12 13 8 13
-23z m1400 -177 c0 -5 -17 -18 -38 -31 l-37 -23 35 31 c37 32 40 34 40 23z
m-4400 -62 c-18 -11 -97 -26 -89 -18 5 6 72 24 94 26 6 0 3 -4 -5 -8z m4320
-1 c0 -5 -5 -10 -11 -10 -5 0 -7 5 -4 10 3 6 8 10 11 10 2 0 4 -4 4 -10z m370
0 c0 -5 -5 -10 -11 -10 -5 0 -7 5 -4 10 3 6 8 10 11 10 2 0 4 -4 4 -10z
m-5823 -16 c-3 -3 -12 -4 -19 -1 -8 3 -5 6 6 6 11 1 17 -2 13 -5z m5407 -19
c-39 -31 -58 -35 -25 -6 19 17 37 28 40 26 2 -3 -4 -12 -15 -20z m386 11 c0
-6 -102 -81 -130 -96 -33 -17 -27 -10 50 49 59 45 80 58 80 47z m-561 -139
c-46 -35 -86 -62 -88 -60 -7 5 147 121 163 122 5 1 -28 -28 -75 -62z m-4688
22 c-5 -13 -10 -19 -10 -12 -1 15 10 45 15 40 3 -2 0 -15 -5 -28z m5053 -29
c-22 -16 -43 -33 -49 -38 -18 -14 -35 -23 -35 -18 0 8 102 86 113 86 5 0 -8
-13 -29 -30z m596 -37 c0 -10 -61 -45 -67 -40 -2 3 11 14 29 25 40 24 38 24
38 15z m-260 -8 c0 -2 -9 -9 -20 -15 -12 -6 -20 -7 -20 -1 0 5 8 12 18 14 9 3
18 5 20 6 1 0 2 -1 2 -4z m-476 -59 c-10 -8 -21 -12 -23 -10 -3 2 4 11 15 18
10 8 21 12 23 10 3 -2 -4 -11 -15 -18z m656 9 c0 -2 -10 -9 -22 -15 -22 -11
-22 -10 -4 4 21 17 26 19 26 11z m-1040 -9 c0 -2 -8 -10 -17 -17 -16 -13 -17
-12 -4 4 13 16 21 21 21 13z m-2396 -26 c32 -11 99 -42 149 -69 125 -67 178
-81 332 -87 152 -6 186 -11 164 -25 -11 -7 -9 -9 9 -9 23 0 32 -29 10 -31 -10
0 -10 -2 0 -6 6 -2 12 -13 12 -24 0 -10 -6 -19 -12 -20 -7 0 -8 -3 -3 -5 6 -2
82 21 169 51 88 30 155 51 150 46 -10 -9 -352 -164 -449 -204 -33 -14 -125
-55 -205 -92 -80 -37 -206 -93 -280 -125 -74 -32 -211 -92 -305 -135 -93 -42
-206 -93 -250 -112 -44 -19 -145 -66 -224 -104 -79 -38 -145 -69 -148 -69 -2
0 -78 -34 -170 -76 -91 -41 -188 -84 -216 -95 -29 -11 -135 -56 -237 -99 -219
-93 -320 -132 -320 -122 1 4 18 21 39 37 23 18 36 36 34 45 -4 12 -3 13 5 1
11 -15 30 -7 51 22 7 10 19 16 27 13 9 -3 14 1 14 12 0 15 20 30 100 77 34 21
50 38 50 55 0 10 7 20 15 24 8 3 21 18 27 33 7 15 17 35 24 43 6 8 14 29 17
45 34 183 48 234 76 274 12 16 21 36 21 44 0 9 6 22 14 29 7 8 17 28 21 46 6
30 25 55 25 34 0 -6 16 6 35 25 19 19 35 41 35 49 0 8 5 14 11 14 6 0 23 8 37
18 31 21 116 42 172 42 69 0 177 -29 272 -72 82 -38 102 -43 170 -44 43 -1 75
2 72 7 -4 8 48 14 96 11 10 0 6 7 -10 21 -14 12 -38 40 -55 62 -16 22 -45 57
-64 78 -30 31 -33 39 -21 47 12 8 10 9 -9 8 -13 -2 -26 3 -29 11 -3 10 0 11 9
5 11 -6 10 -3 -1 11 -14 17 -13 18 8 13 12 -4 22 -2 22 3 0 5 13 15 28 23 19
10 35 31 47 63 36 95 88 138 225 189 53 19 149 17 214 -6z m2693 -35 c-15 -14
-33 -25 -40 -25 -6 0 4 11 23 25 45 31 53 31 17 0z m623 -15 c-8 -5 -19 -10
-25 -10 -5 0 -3 5 5 10 8 5 20 10 25 10 6 0 3 -5 -5 -10z m-739 -70 c-19 -16
-37 -27 -40 -24 -3 3 2 10 12 15 9 6 23 16 30 24 6 8 17 14 22 14 6 0 -5 -13
-24 -29z m669 25 c0 -2 -20 -18 -45 -35 -57 -39 -59 -32 -3 9 43 32 48 34 48
26z m-740 -73 c0 -10 -105 -87 -170 -126 -50 -30 -43 -24 80 69 94 71 90 68
90 57z m617 -20 c-9 -10 -57 -47 -107 -82 -193 -138 -269 -193 -379 -272 -365
-265 -483 -348 -461 -326 18 19 695 514 800 585 41 28 93 65 115 82 46 35 55
39 32 13z m-7996 -260 c-15 -180 3 -344 56 -522 13 -47 28 -100 33 -118 8 -31
3 -72 -9 -82 -35 -29 -40 -151 -11 -265 11 -43 20 -93 20 -111 0 -18 11 -64
25 -102 14 -38 25 -76 25 -84 0 -27 38 -102 69 -135 16 -18 24 -34 18 -36 -6
-2 -7 -9 -3 -16 7 -11 10 -11 18 0 6 10 7 7 3 -10 -5 -16 -4 -21 4 -17 7 5 17
-7 27 -29 8 -20 19 -33 24 -30 6 3 10 2 10 -4 0 -36 -49 3 -100 79 -13 19 -27
37 -31 40 -15 12 -92 146 -148 261 -69 140 -95 231 -116 404 -28 221 -11 522
40 725 13 52 29 122 36 155 18 87 22 42 10 -103z m6783 86 c-23 -45 -119 -192
-170 -258 -55 -72 -152 -170 -227 -227 -47 -36 -300 -172 -345 -185 -12 -4
-102 73 -102 86 0 6 5 5 12 -2 13 -13 48 -16 48 -4 0 9 134 60 175 66 23 4 97
37 105 48 8 10 75 38 130 54 25 8 33 12 18 10 -36 -4 -35 0 3 20 18 9 43 28
56 42 19 20 22 22 17 6 -6 -16 -5 -17 7 -6 8 7 15 17 15 23 1 5 2 13 3 18 0 5
14 23 30 40 16 17 24 31 18 32 -7 1 -1 4 12 8 13 3 32 22 42 41 11 19 19 29
19 22 0 -7 5 -10 10 -7 6 4 8 16 5 28 -4 15 -3 18 3 9 7 -10 15 -1 31 32 11
26 30 55 41 66 11 11 20 27 20 35 0 11 24 33 38 35 1 0 -5 -15 -14 -32z m196
-92 c0 -4 -75 -57 -130 -92 -42 -27 29 33 79 66 45 30 51 33 51 26z m370 -1
c0 -2 -10 -10 -22 -16 -21 -11 -22 -11 -9 4 13 16 31 23 31 12z m550 -69 c0
-2 -7 -7 -16 -10 -8 -3 -12 -2 -9 4 6 10 25 14 25 6z m-1089 -59 c-10 -9 -11
-8 -5 6 3 10 9 15 12 12 3 -3 0 -11 -7 -18z m1009 8 c-7 -8 -18 -15 -24 -15
-6 0 -2 7 8 15 25 19 32 19 16 0z m-65 -50 c-17 -13 -34 -24 -40 -25 -5 0 6
13 25 29 19 16 37 27 40 25 2 -3 -9 -16 -25 -29z m-110 -80 c-28 -23 -45 -31
-45 -21 0 5 63 46 70 46 3 0 -8 -11 -25 -25z m-125 -79 c0 -2 -8 -10 -17 -17
-16 -13 -17 -12 -4 4 13 16 21 21 21 13z m-55 -46 c-10 -11 -23 -20 -29 -20
-6 1 0 10 13 20 30 26 39 26 16 0z m390 0 c-3 -5 -12 -10 -18 -10 -7 0 -6 4 3
10 19 12 23 12 15 0z m-36 -23 c-2 -1 -13 -9 -24 -17 -19 -14 -19 -14 -6 3 7
9 18 17 24 17 6 0 8 -1 6 -3z m-789 -31 c0 -3 -30 -26 -67 -52 -38 -26 -80
-59 -95 -72 -15 -14 -31 -22 -35 -19 -3 4 -4 9 -2 10 18 15 193 137 196 137 1
0 3 -2 3 -4z m706 -31 c-8 -8 -18 -15 -22 -15 -3 0 -1 7 6 15 7 8 17 15 22 15
5 0 3 -7 -6 -15z m-436 -29 c0 -4 -84 -66 -110 -81 -27 -15 -1 8 53 46 54 40
57 42 57 35z m295 -66 c-3 -5 -12 -10 -18 -10 -7 0 -6 4 3 10 19 12 23 12 15
0z m-1985 -66 c122 -38 176 -68 245 -138 104 -104 148 -236 124 -370 -11 -65
-48 -140 -74 -150 -20 -7 -19 5 4 57 10 23 24 69 31 103 10 52 10 65 -3 91
-15 28 -76 83 -93 83 -14 0 -54 43 -54 57 0 10 -7 12 -21 8 -13 -4 -19 -3 -16
2 4 6 -2 19 -11 29 -10 10 -21 27 -24 36 -12 31 -65 49 -146 51 -105 1 -142
-7 -205 -47 -65 -42 -73 -51 -104 -123 -24 -57 -24 -57 -20 -18 3 22 3 34 0
27 -2 -6 -9 -10 -14 -6 -5 3 -9 -5 -10 -18 0 -20 -1 -20 -8 -5 -6 17 -9 16
-34 -7 -16 -14 -34 -26 -42 -26 -20 0 -27 -50 -12 -95 13 -40 43 -99 74 -145
l17 -25 -28 25 c-38 33 -93 152 -105 228 -22 137 20 242 127 324 91 68 153 90
242 84 41 -3 113 -17 160 -32z m1519 3 c-2 -2 -20 -14 -39 -26 l-35 -23 30 26
c17 14 34 26 39 26 5 0 7 -1 5 -3z m341 -27 c-35 -24 -54 -31 -30 -11 14 11
30 21 35 21 6 0 3 -5 -5 -10z m-4257 -35 c-3 -9 -8 -14 -10 -11 -3 3 -2 9 2
15 9 16 15 13 8 -4z m-53 -65 c-17 -22 -34 -40 -36 -40 -11 0 -2 19 24 48 39
46 50 39 12 -8z m3775 -10 c-3 -5 -12 -10 -18 -10 -7 0 -6 4 3 10 19 12 23 12
15 0z m350 -27 c-41 -30 -59 -34 -25 -5 19 16 37 28 40 25 3 -2 -4 -11 -15
-20z m-405 -16 c-43 -39 -100 -80 -100 -71 0 8 109 93 120 94 3 0 -6 -10 -20
-23z m-3776 1 c-11 -18 -43 -40 -78 -56 -35 -15 -35 -15 24 32 47 36 67 45 54
24z m103 -4 c-3 -3 -12 -4 -19 -1 -8 3 -5 6 6 6 11 1 17 -2 13 -5z m4012 -27
c-23 -19 -130 -86 -119 -74 22 22 114 85 119 81 2 -2 2 -6 0 -7z m-3195 -144
c38 -65 89 -151 113 -190 24 -40 43 -75 43 -78 0 -6 106 -188 173 -298 35 -57
87 -160 87 -173 0 -3 -4 -2 -10 1 -5 3 -10 2 -10 -4 0 -5 -18 -12 -40 -16 -22
-4 -43 -11 -46 -16 -10 -17 -52 42 -104 146 -28 55 -59 114 -69 130 -10 17
-29 50 -43 75 -31 57 -91 154 -152 247 -49 76 -116 209 -116 230 0 7 6 13 13
13 8 0 24 11 37 25 13 14 31 25 39 25 10 0 43 -46 85 -117z m1574 1 c36 -30
42 -41 42 -74 0 -30 -6 -43 -26 -59 -62 -49 -147 -32 -187 37 -24 41 -12 76
36 110 47 32 86 29 135 -14z m2461 -310 c-7 -9 -22 -19 -32 -23 -13 -5 5 -14
62 -30 73 -21 131 -57 131 -82 0 -11 -44 -39 -128 -83 -39 -20 -127 -68 -194
-107 -84 -48 -124 -66 -129 -57 -19 30 -72 206 -67 220 4 9 28 23 55 32 26 9
68 30 93 47 61 41 150 82 177 80 12 0 25 4 28 9 3 6 9 10 12 10 3 0 -1 -7 -8
-16z m-7731 -295 c-2 -6 11 -27 29 -46 58 -61 58 -80 1 -24 -43 42 -53 57 -44
67 14 16 19 17 14 3z m6782 -14 c0 -2 -10 -9 -22 -15 -22 -11 -22 -10 -4 4 21
17 26 19 26 11z m-71 -48 c-2 -1 -15 -11 -29 -22 l-25 -20 19 23 c11 12 24 22
29 22 6 0 8 -1 6 -3z m-6594 -77 c3 -5 1 -10 -4 -10 -6 0 -11 5 -11 10 0 6 2
10 4 10 3 0 8 -4 11 -10z m160 -130 c3 -6 -1 -7 -9 -4 -18 7 -21 14 -7 14 6 0
13 -4 16 -10z m4048 -27 c96 -28 197 -89 254 -153 57 -64 86 -186 64 -268 -11
-40 -34 -53 -25 -14 6 25 -16 48 -52 55 -25 5 -41 -1 -85 -31 -51 -35 -58 -37
-134 -37 -71 0 -87 4 -142 33 -62 32 -97 40 -107 23 -9 -13 23 -96 45 -120 28
-30 20 -35 -18 -11 -39 23 -119 135 -144 200 -50 131 -5 265 109 325 41 22 55
25 115 19 37 -3 91 -12 120 -21z m2407 -113 c0 -5 -5 -10 -11 -10 -5 0 -7 5
-4 10 3 6 8 10 11 10 2 0 4 -4 4 -10z m-3681 -27 c10 -10 24 -28 30 -40 6 -13
17 -23 24 -23 7 0 12 -14 13 -31 1 -30 1 -30 -30 18 -17 26 -33 50 -36 53 -15
15 -32 40 -26 40 4 0 15 -8 25 -17z m54 -28 c4 -8 3 -16 -1 -19 -4 -3 -9 4 -9
15 -2 23 3 25 10 4z m502 -163 c-4 -33 -1 -93 6 -138 6 -43 12 -90 13 -104 0
-14 5 -29 11 -33 7 -6 6 -10 -2 -14 -7 -2 -13 -13 -13 -23 0 -10 -10 -26 -22
-35 -23 -15 -23 -19 -22 -208 0 -123 -4 -195 -10 -200 -7 -6 -4 -7 6 -4 9 3
19 -1 22 -9 3 -9 2 -12 -5 -9 -19 12 -2 -76 18 -90 18 -13 13 -32 -6 -21 -25
16 -110 152 -164 264 -76 157 -82 209 -43 355 14 55 26 100 26 102 0 2 -9 5
-20 7 -21 3 -21 3 1 16 11 8 18 9 14 3 -3 -6 1 -11 10 -11 11 0 15 5 12 14 -3
8 5 24 19 37 13 12 24 27 24 33 1 22 107 126 128 126 2 0 1 -26 -3 -58z m-265
-132 c14 -11 21 -20 15 -20 -5 0 -21 9 -35 20 -14 11 -20 20 -15 20 6 0 21 -9
35 -20z m295 -780 c3 -5 1 -10 -4 -10 -6 0 -11 5 -11 10 0 6 2 10 4 10 3 0 8
-4 11 -10z m-2450 -109 c49 -22 105 -91 117 -144 8 -38 5 -43 -13 -24 -17 18
-56 3 -64 -25 -8 -22 -25 -24 -25 -2 0 9 -15 31 -34 50 -29 29 -41 34 -82 34
-33 0 -44 3 -35 9 12 8 12 12 2 25 -8 9 -10 16 -6 16 4 0 2 6 -4 13 -6 8 -8
17 -4 20 3 4 -5 7 -18 7 -18 0 -20 3 -10 9 11 7 9 10 -10 13 -22 4 -21 5 11
16 46 15 119 8 175 -17z"/>
<path d="M3490 6745 c-15 -8 -19 -14 -10 -14 18 -1 46 16 40 23 -3 2 -16 -2
-30 -9z"/>
<path d="M3585 6750 c-3 -5 -1 -10 4 -10 6 0 11 5 11 10 0 6 -2 10 -4 10 -3 0
-8 -4 -11 -10z"/>
<path d="M3385 6690 c-3 -5 -2 -10 4 -10 5 0 13 5 16 10 3 6 2 10 -4 10 -5 0
-13 -4 -16 -10z"/>
<path d="M3340 6659 c0 -5 5 -7 10 -4 6 3 10 8 10 11 0 2 -4 4 -10 4 -5 0 -10
-5 -10 -11z"/>
<path d="M3289 6613 c-13 -16 -12 -17 4 -4 9 7 17 15 17 17 0 8 -8 3 -21 -13z"/>
<path d="M3317 6603 c-4 -3 -7 -11 -7 -17 0 -6 5 -5 12 2 6 6 9 14 7 17 -3 3
-9 2 -12 -2z"/>
<path d="M3340 6569 c0 -5 5 -7 10 -4 6 3 10 8 10 11 0 2 -4 4 -10 4 -5 0 -10
-5 -10 -11z"/>
<path d="M3240 6500 c0 -5 4 -10 9 -10 6 0 13 5 16 10 3 6 -1 10 -9 10 -9 0
-16 -4 -16 -10z"/>
<path d="M2551 7554 c-17 -14 -31 -32 -31 -40 0 -24 38 -54 69 -54 69 0 113
88 55 110 -40 16 -60 12 -93 -16z"/>
<path d="M5946 6796 c-79 -30 -146 -126 -146 -213 0 -165 206 -286 358 -209
71 36 130 104 143 165 22 104 -33 190 -151 236 -83 32 -153 40 -204 21z m164
-136 c46 -23 60 -45 60 -93 0 -44 -24 -74 -75 -91 -34 -12 -45 -12 -75 0 -73
30 -114 111 -77 156 41 50 102 61 167 28z"/>
<path d="M5384 6646 c-88 -39 -81 -149 11 -172 66 -16 147 56 131 119 -12 50
-87 78 -142 53z"/>
<path d="M5029 6491 c-65 -65 -20 -161 76 -161 37 0 47 5 74 35 47 54 39 110
-19 140 -48 25 -97 19 -131 -14z"/>
<path d="M4714 6356 c-67 -67 -30 -156 66 -156 100 0 143 102 68 165 -44 37
-91 34 -134 -9z"/>
<path d="M5243 6242 c-60 -6 -111 -90 -84 -140 37 -69 141 -86 192 -31 38 41
40 95 4 137 -25 30 -55 39 -112 34z"/>
<path d="M4117 6154 c-4 -4 -52 -11 -106 -15 -163 -13 -261 -63 -357 -186 -62
-78 -86 -145 -92 -254 -10 -188 74 -335 248 -432 91 -50 221 -80 325 -75 112
6 239 61 311 134 87 89 164 264 164 374 0 91 -43 200 -105 269 -43 47 -44 55
-5 33 16 -9 30 -20 30 -24 0 -4 10 -12 23 -19 12 -6 0 11 -28 40 -74 77 -216
140 -351 155 -28 4 -53 3 -57 0z m-93 -171 c14 -21 39 -72 57 -113 17 -41 35
-79 40 -84 5 -5 46 7 101 31 124 54 158 66 162 62 12 -13 66 -131 66 -143 0
-17 -124 -79 -195 -98 -25 -7 -47 -18 -49 -24 -3 -7 17 -57 45 -110 49 -98 55
-114 42 -114 -5 0 -18 23 -30 50 -21 47 -24 50 -60 50 -30 0 -40 -5 -49 -24
-7 -16 -8 -30 -1 -41 7 -13 6 -16 -3 -10 -12 7 -10 -7 7 -52 3 -7 3 -13 0 -13
-9 0 -85 134 -98 174 -8 21 -19 40 -25 43 -6 2 -33 -10 -60 -26 -62 -38 -154
-86 -133 -69 15 12 51 40 94 74 19 15 19 15 -10 10 -62 -10 -90 -22 -93 -38
-2 -13 2 -16 15 -11 15 5 16 4 5 -8 -11 -12 -15 -11 -27 4 -11 16 -13 14 -11
-19 0 -20 -4 -39 -10 -41 -12 -4 -84 125 -84 149 0 8 17 22 38 31 20 9 69 30
109 46 39 17 76 31 82 31 19 0 13 17 -44 129 -49 99 -53 110 -38 123 26 21
107 67 120 67 7 1 24 -16 37 -36z"/>
<path d="M3883 5173 c9 -2 23 -2 30 0 6 3 -1 5 -18 5 -16 0 -22 -2 -12 -5z"/>
<path d="M8140 5699 c0 -19 4 -41 9 -48 6 -10 8 1 4 30 -7 55 -13 63 -13 18z"/>
<path d="M8108 5695 c2 -14 6 -25 8 -25 2 0 4 11 4 25 0 14 -4 25 -9 25 -4 0
-6 -11 -3 -25z"/>
<path d="M8360 5670 c0 -5 -9 -10 -20 -10 -11 0 -20 -4 -20 -10 0 -5 18 -10
40 -10 33 0 40 3 40 20 0 13 -7 20 -20 20 -11 0 -20 -4 -20 -10z"/>
<path d="M8143 5577 c0 -17 1 -26 4 -19 2 6 8 10 12 7 5 -2 6 7 3 20 -6 35
-17 31 -19 -8z"/>
<path d="M8240 5429 c0 -5 5 -7 10 -4 6 3 10 8 10 11 0 2 -4 4 -10 4 -5 0 -10
-5 -10 -11z"/>
<path d="M1691 6744 c-31 -26 -41 -68 -25 -109 10 -25 58 -45 109 -45 107 0
131 115 35 165 -43 22 -84 19 -119 -11z"/>
<path d="M1695 6570 c-3 -5 -2 -10 4 -10 5 0 13 5 16 10 3 6 2 10 -4 10 -5 0
-13 -4 -16 -10z"/>
<path d="M6470 4255 c7 -8 22 -15 34 -15 20 1 20 2 -4 15 -33 19 -46 19 -30 0z"/>
<path d="M6000 3061 c0 -6 4 -13 10 -16 6 -3 7 1 4 9 -7 18 -14 21 -14 7z"/>
</g>
</svg>
